<svg preserveAspectRatio="none" width="100%" height="100%" overflow="visible" style="display: block;" viewBox="0 0 119.996 119.996" fill="none" xmlns="http://www.w3.org/2000/svg">
<g id="Icon">
<path id="Vector" d="M39.9989 50.9987C43.3126 50.9987 45.9989 48.3124 45.9989 44.9987C45.9989 41.685 43.3126 38.9987 39.9989 38.9987C36.6852 38.9987 33.9989 41.685 33.9989 44.9987C33.9989 48.3124 36.6852 50.9987 39.9989 50.9987Z" fill="var(--fill-0, #4A90E2)"/>
<path id="Vector_2" d="M79.9975 50.9987C83.3112 50.9987 85.9975 48.3124 85.9975 44.9987C85.9975 41.685 83.3112 38.9987 79.9975 38.9987C76.6838 38.9987 73.9975 41.685 73.9975 44.9987C73.9975 48.3124 76.6838 50.9987 79.9975 50.9987Z" fill="var(--fill-0, #4A90E2)"/>
<path id="Vector_3" d="M34.9988 69.9977C51.6649 79.9973 68.3311 79.9973 84.9972 69.9977" stroke="var(--stroke-0, #4A90E2)" stroke-width="3.99987" stroke-linecap="round"/>
<path id="Vector_4" d="M49.9983 24.9993C56.665 18.3327 63.3317 18.3327 69.9983 24.9993" stroke="var(--stroke-0, #22D3EE)" stroke-width="2.9999" stroke-linecap="round"/>
<path id="Vector_5" opacity="0.5" d="M29.9991 57.9983C31.656 57.9983 32.9991 56.6551 32.9991 54.9983C32.9991 53.3414 31.656 51.9983 29.9991 51.9983C28.3422 51.9983 26.9991 53.3414 26.9991 54.9983C26.9991 56.6551 28.3422 57.9983 29.9991 57.9983Z" fill="var(--fill-0, #22D3EE)"/>
<path id="Vector_6" opacity="0.5" d="M89.9971 57.9983C91.654 57.9983 92.9971 56.6551 92.9971 54.9983C92.9971 53.3414 91.654 51.9983 89.9971 51.9983C88.3402 51.9983 86.9971 53.3414 86.9971 54.9983C86.9971 56.6551 88.3402 57.9983 89.9971 57.9983Z" fill="var(--fill-0, #22D3EE)"/>
</g>
</svg>
